<svg preserveAspectRatio="none" width="100%" height="100%" overflow="visible" style="display: block;" viewBox="0 0 10.671 16.649" fill="none" xmlns="http://www.w3.org/2000/svg">
<g id="Group">
<g id="Group_2" opacity="0.2">
<path id="Vector" d="M7.49196 14.649C7.49196 15.1794 7.28124 15.6881 6.90617 16.0632C6.5311 16.4383 6.02239 16.649 5.49196 16.649C4.96152 16.649 4.45281 16.4383 4.07774 16.0632C3.70267 15.6881 3.49196 15.1794 3.49196 14.649C3.49196 14.1186 3.70267 13.6099 4.07774 13.2348C4.45281 12.8597 4.96152 12.649 5.49196 12.649C6.02239 12.649 6.5311 12.8597 6.90617 13.2348C7.28124 13.6099 7.49196 14.1186 7.49196 14.649Z" fill="var(--fill-0, #BF9804)"/>
<path id="Vector_2" fill-rule="evenodd" clip-rule="evenodd" d="M5.46296 3.201C4.79296 3.201 4.21796 3.401 3.81296 3.687C3.42296 3.963 3.22996 4.284 3.17396 4.561C3.09121 4.93126 2.86664 5.25435 2.54842 5.46094C2.2302 5.66753 1.84369 5.74117 1.4718 5.66606C1.09991 5.59095 0.772277 5.37307 0.559183 5.05917C0.346089 4.74527 0.264513 4.36035 0.331956 3.987C0.558956 2.861 1.25696 1.942 2.14096 1.317C3.06096 0.667 4.22696 0.301 5.46296 0.301C8.01996 0.301 10.671 2.011 10.671 4.757C10.671 6.347 9.72596 7.633 8.50196 8.383C8.33951 8.48241 8.15908 8.54885 7.97095 8.57853C7.78283 8.60821 7.5907 8.60054 7.40554 8.55597C7.22038 8.5114 7.04582 8.43079 6.89181 8.31876C6.7378 8.20672 6.60737 8.06545 6.50796 7.903C6.40855 7.74056 6.3421 7.56012 6.31243 7.372C6.28275 7.18387 6.29041 6.99175 6.33499 6.80659C6.37956 6.62143 6.46016 6.44686 6.5722 6.29285C6.68424 6.13884 6.82551 6.00841 6.98796 5.909C7.55796 5.56 7.77096 5.115 7.77096 4.757C7.77096 4.183 7.05596 3.201 5.46296 3.201Z" fill="var(--fill-0, #BF9804)"/>
<path id="Vector_3" fill-rule="evenodd" clip-rule="evenodd" d="M5.46296 7.066C6.26296 7.066 6.91296 7.714 6.91296 8.516V10.018C6.91296 10.4026 6.76019 10.7714 6.48826 11.0433C6.21633 11.3152 5.84752 11.468 5.46296 11.468C5.07839 11.468 4.70958 11.3152 4.43765 11.0433C4.16572 10.7714 4.01296 10.4026 4.01296 10.018V8.516C4.01296 7.716 4.66196 7.066 5.46296 7.066Z" fill="var(--fill-0, #BF9804)"/>
<path id="Vector_4" fill-rule="evenodd" clip-rule="evenodd" d="M8.99196 6.402C9.08991 6.56546 9.15467 6.74663 9.18256 6.93515C9.21044 7.12366 9.20089 7.31582 9.15445 7.50064C9.10801 7.68546 9.0256 7.85932 8.91192 8.01226C8.79825 8.16521 8.65554 8.29425 8.49196 8.392L6.20796 9.759C5.87803 9.95659 5.48312 10.015 5.11011 9.92144C4.7371 9.82785 4.41654 9.58993 4.21896 9.26C4.02137 8.93007 3.96294 8.53516 4.05652 8.16215C4.1501 7.78914 4.38803 7.46859 4.71796 7.271L7.00296 5.903C7.16638 5.80521 7.34747 5.74056 7.53588 5.71276C7.72429 5.68497 7.91633 5.69456 8.10103 5.74099C8.28573 5.78742 8.45948 5.86978 8.61234 5.98337C8.76521 6.09696 8.8942 6.23955 8.99196 6.403" fill="var(--fill-0, #BF9804)"/>
</g>
<path id="Vector_5" d="M5.75296 13.686C5.75296 14.0175 5.62126 14.3355 5.38684 14.5699C5.15242 14.8043 4.83448 14.936 4.50296 14.936C4.17144 14.936 3.85349 14.8043 3.61907 14.5699C3.38465 14.3355 3.25296 14.0175 3.25296 13.686C3.25296 13.3545 3.38465 13.0365 3.61907 12.8021C3.85349 12.5677 4.17144 12.436 4.50296 12.436C4.83448 12.436 5.15242 12.5677 5.38684 12.8021C5.62126 13.0365 5.75296 13.3545 5.75296 13.686Z" fill="var(--fill-0, #BF9804)"/>
<path id="Vector_6" fill-rule="evenodd" clip-rule="evenodd" d="M4.46296 1.501C3.65596 1.501 2.93896 1.741 2.40996 2.115C1.89996 2.475 1.58496 2.941 1.48796 3.423C1.47015 3.52115 1.43295 3.61475 1.37852 3.69835C1.3241 3.78194 1.25355 3.85383 1.171 3.90982C1.08845 3.96581 0.995557 4.00478 0.897765 4.02443C0.799973 4.04408 0.699243 4.04403 0.601471 4.02427C0.503699 4.00452 0.41085 3.96546 0.328358 3.90939C0.245866 3.85331 0.175389 3.78134 0.121051 3.69769C0.0667138 3.61404 0.0296078 3.5204 0.0119055 3.42223C-0.00579675 3.32407 -0.00373998 3.22336 0.0179556 3.126C0.203956 2.204 0.779956 1.43 1.54396 0.89C2.33996 0.328 3.36396 0 4.46296 0C6.78796 0 8.97096 1.535 8.97096 3.757C8.97096 5.049 8.20296 6.133 7.13696 6.786C6.96722 6.88997 6.76313 6.92224 6.56959 6.87573C6.37606 6.82923 6.20892 6.70774 6.10496 6.538C6.00099 6.36826 5.96871 6.16417 6.01522 5.97064C6.06173 5.7771 6.18322 5.60996 6.35296 5.506C7.08196 5.06 7.47096 4.413 7.47096 3.757C7.47096 2.658 6.28896 1.501 4.46296 1.501ZM4.46296 6.766C4.66187 6.766 4.85263 6.84502 4.99329 6.98567C5.13394 7.12632 5.21296 7.31709 5.21296 7.516V9.018C5.21296 9.21691 5.13394 9.40768 4.99329 9.54833C4.85263 9.68898 4.66187 9.768 4.46296 9.768C4.26404 9.768 4.07328 9.68898 3.93263 9.54833C3.79197 9.40768 3.71296 9.21691 3.71296 9.018V7.516C3.71296 7.31709 3.79197 7.12632 3.93263 6.98567C4.07328 6.84502 4.26404 6.766 4.46296 6.766Z" fill="var(--fill-0, #BF9804)"/>
<path id="Vector_7" fill-rule="evenodd" clip-rule="evenodd" d="M7.39096 5.762C7.4416 5.8465 7.4751 5.94015 7.48954 6.0376C7.50398 6.13505 7.49908 6.23439 7.47512 6.32995C7.45116 6.4255 7.40861 6.5154 7.34991 6.59451C7.2912 6.67362 7.21748 6.74039 7.13296 6.791L4.84796 8.159C4.7634 8.21168 4.66919 8.24699 4.57083 8.26286C4.47247 8.27873 4.37194 8.27485 4.2751 8.25144C4.17826 8.22802 4.08706 8.18555 4.00682 8.1265C3.92657 8.06745 3.8589 7.993 3.80775 7.9075C3.7566 7.82201 3.72299 7.72718 3.7089 7.62855C3.6948 7.52992 3.7005 7.42948 3.72566 7.33308C3.75081 7.23668 3.79492 7.14625 3.85541 7.06709C3.9159 6.98792 3.99155 6.9216 4.07796 6.872L6.36296 5.504C6.53353 5.40204 6.73759 5.37194 6.93033 5.42032C7.12308 5.46869 7.28875 5.59158 7.39096 5.762Z" fill="var(--fill-0, #BF9804)"/>
</g>
</svg>
