<svg preserveAspectRatio="none" width="100%" height="100%" overflow="visible" style="display: block;" viewBox="0 0 100.19 122.454" fill="none" xmlns="http://www.w3.org/2000/svg">
<g id="reward copy">
<path id="Shape" fill-rule="evenodd" clip-rule="evenodd" d="M5.9736 64.991C6.92299 62.5609 6.1848 59.8304 4.13641 58.1968C-1.37378 53.8022 -1.38428 45.479 4.13777 41.075C6.18649 39.4414 6.92468 36.7109 5.97495 34.2812C3.42124 27.7455 7.61142 20.5321 14.6149 19.4536C17.2133 19.0535 19.2306 17.0547 19.6343 14.4801C20.7201 7.55514 27.9897 3.38318 34.5989 5.91922C37.0514 6.85959 39.8065 6.12849 41.4555 4.09885C45.8904 -1.36025 54.2904 -1.37232 58.7351 4.09885C60.3841 6.12849 63.1388 6.86026 65.592 5.91922C72.1877 3.38821 79.4684 7.54072 80.5565 14.4801C80.9603 17.0547 82.9776 19.0535 85.5763 19.4536C92.5649 20.5298 96.7751 27.7321 94.2159 34.2812C93.2665 36.7109 94.0047 39.4414 96.0531 41.075C101.568 45.4737 101.57 53.7965 96.0531 58.1968C94.0044 59.8304 93.2662 62.5609 94.2159 64.991C96.77 71.5263 92.5795 78.74 85.576 79.8186C83.8657 80.0818 82.411 81.0406 81.4985 82.3975L93.3853 105.236C94.0988 106.607 93.9468 108.214 92.9887 109.43C92.0305 110.646 90.4942 111.182 88.9782 110.828L76.0126 107.802L70.9834 120.023C70.3952 121.452 69.0636 122.382 67.5084 122.45C67.4471 122.453 67.3862 122.454 67.3256 122.454C65.8432 122.454 64.515 121.656 63.8296 120.339L52.7043 98.9636C50.9785 99.3748 49.2087 99.3741 47.4852 98.9636L36.3599 120.339C35.6742 121.656 34.3464 122.454 32.8639 122.454C32.8033 122.454 32.7424 122.453 32.6811 122.45C31.1255 122.382 29.794 121.452 29.2061 120.023L24.1769 107.802L11.2113 110.828C9.69535 111.181 8.15906 110.646 7.20087 109.43C6.24267 108.214 6.0907 106.607 6.80419 105.236L18.691 82.3975C17.7785 81.0406 16.3238 80.0818 14.6132 79.8186C7.62428 78.7424 3.41379 71.5397 5.9736 64.991ZM28.511 105.01L32.9764 115.861L42.9553 96.6892C42.4134 96.2358 41.9088 95.7311 41.4542 95.1717C39.8049 93.1414 37.0491 92.4089 34.5973 93.351C29.4763 95.3166 23.8084 93.2611 21.0851 88.7709L12.4458 105.37L23.9573 102.683C25.8592 102.239 27.7735 103.218 28.511 105.01ZM76.2296 102.683C74.3292 102.242 72.4141 103.218 71.6763 105.01L67.2109 115.861L57.232 96.6892C57.7739 96.2361 58.2785 95.7314 58.7331 95.1717C60.3824 93.1421 63.1382 92.4113 65.5897 93.351C70.7117 95.3162 76.3792 93.2604 79.1018 88.7709L87.7411 105.37L76.2296 102.683ZM10.7083 32.4654C12.4596 36.9462 11.0979 41.9814 7.31998 44.9943C4.3327 47.3768 4.32627 51.8905 7.31998 54.2783C11.0979 57.2912 12.4596 62.3264 10.7083 66.8076C9.32302 70.3517 11.5955 74.2634 15.393 74.848C20.1853 75.5861 23.9054 79.2721 24.65 84.0203C25.2389 87.776 29.1821 90.0377 32.7644 88.6621C37.294 86.9245 42.3737 88.2824 45.4094 92.0194C47.8145 94.98 52.3699 94.9857 54.7794 92.0194C57.8202 88.2764 62.9022 86.9282 67.4241 88.6621C71.0081 90.0364 74.9495 87.7767 75.5388 84.0203C76.2834 79.2718 80.0034 75.5858 84.7954 74.848C88.5852 74.2644 90.8681 70.3588 89.4804 66.8076C87.7289 62.3264 89.0905 57.2912 92.8685 54.2783C95.8564 51.8955 95.8622 47.3818 92.8685 44.9943C89.0909 41.9814 87.7292 36.9462 89.4804 32.4654C90.8658 28.9212 88.5933 25.0095 84.7958 24.425C80.0035 23.6868 76.2834 20.0008 75.5388 15.2527C74.9498 11.4973 71.0071 9.23521 67.4244 10.6105C62.9015 12.3454 57.8198 10.9962 54.7794 7.25353C52.3743 4.29291 47.8196 4.28654 45.4094 7.25353C42.3686 10.9969 37.2876 12.3457 32.7647 10.6105C29.1875 9.23722 25.24 11.4912 24.65 15.2527C23.9054 20.0011 20.1853 23.6872 15.3934 24.425C11.6032 25.0085 9.32031 28.9142 10.7083 32.4654Z" fill="var(--fill-0, #FFCB05)"/>
<path id="Shape_2" fill-rule="evenodd" clip-rule="evenodd" d="M57.4943 39.7917L68.7852 40.2874C72.1701 40.4353 73.5616 44.671 70.9097 46.7647L62.069 53.7416L65.0824 64.5351C65.9891 67.7831 62.3395 70.3828 59.5221 68.5387L50.0931 62.3632L40.6649 68.5383C37.837 70.3892 34.2006 67.7724 35.1043 64.5351L38.1176 53.7416L29.2769 46.7647C26.622 44.6693 28.0189 40.4356 31.4008 40.2877L42.692 39.7921L46.6564 29.3048C47.8454 26.1604 52.3402 26.1597 53.5296 29.3045L57.4943 39.7917ZM56.928 54.1943C56.5351 52.7875 57.0259 51.2904 58.1787 50.3806L64.8082 45.1482L56.3408 44.7766C54.8685 44.7119 53.5833 43.7866 53.0665 42.42L50.0931 34.5553L47.12 42.4196C46.6032 43.7866 45.318 44.7119 43.8464 44.7766L35.378 45.1482L42.0079 50.3806C43.1607 51.2904 43.6518 52.7875 43.2585 54.1947L40.9986 62.2884L48.0694 57.6573C48.6844 57.2549 49.3891 57.0537 50.0934 57.0537C50.7978 57.0537 51.5021 57.2549 52.1164 57.657C52.1168 57.657 52.1171 57.6573 52.1171 57.6573L59.188 62.2884L56.928 54.1943Z" fill="var(--fill-0, #FFCB05)"/>
</g>
</svg>
